<svg width="658.4px" height="122.1px" xmlns="http://www.w3.org/2000/svg" viewBox="-79.21999511718747 13.960000610351564 658.4399902343749 122.07999877929687" style="background: rgba(0, 0, 0, 0) none repeat scroll 0% 0%" preserveAspectRatio="xMidYMid"><defs><linearGradient id="editing-gradient-gradient" x1="0" x2="1" y1="0.5" y2="0.5" gradientUnits="objectBoundingBox"><stop offset="0" stop-color="#ff00ff"></stop><stop offset="1" stop-color="#00ffff"></stop></linearGradient></defs><g><g transform="matrix(1.4,0,0,2,-60.9,-7.6)"><path d="M 7.4 57.5 L -6.6 57.5 L 1.5 15.3 L 15.6 15.3 L 7.4 57.5 Z M 63.1 58.8 L 63.1 58.8 L 63.1 58.8 Q 55.4 58.8 55.4 52.8 L 55.4 52.8 L 55.4 52.8 Q 55.4 50.1 56.5 45 L 56.5 45 L 56.5 45 Q 57.6 40 58 37.9 L 58 37.9 L 58 37.9 Q 58.9 33.2 58.9 31.8 L 58.9 31.8 L 58.9 31.8 Q 58.9 28.5 56.5 28.5 L 56.5 28.5 L 56.5 28.5 Q 54.9 28.5 53.3 30.7 L 53.3 30.7 L 53.3 30.7 Q 51.8 32.9 51.1 37.3 L 51.1 37.3 L 47.1 57.5 L 34.6 58.8 L 38.1 41.4 L 38.1 41.4 Q 38.7 38.5 39.2 35.2 L 39.2 35.2 L 39.2 35.2 Q 39.7 32 39.7 31.4 L 39.7 31.4 L 39.7 31.4 Q 39.7 28.5 37.5 28.5 L 37.5 28.5 L 37.5 28.5 Q 36 28.5 34.4 30.7 L 34.4 30.7 L 34.4 30.7 Q 32.8 32.9 31.9 37.3 L 31.9 37.3 L 28 57.5 L 15.4 58.8 L 22.2 24.9 L 32.6 23.6 L 31.5 30 L 31.5 30 Q 33.2 26.6 36.2 25.1 L 36.2 25.1 L 36.2 25.1 Q 39.3 23.6 44.1 23.6 L 44.1 23.6 L 44.1 23.6 Q 46.9 23.6 48.7 24.9 L 48.7 24.9 L 48.7 24.9 Q 50.4 26.3 51 28.4 L 51 28.4 L 51 28.4 Q 52.1 26.2 54.9 24.9 L 54.9 24.9 L 54.9 24.9 Q 57.7 23.6 61.1 23.6 L 61.1 23.6 L 61.1 23.6 Q 64.5 23.6 66.2 24.3 L 66.2 24.3 L 66.2 24.3 Q 67.9 25 68.9 26.3 L 68.9 26.3 L 68.9 26.3 Q 70.7 28.5 70.7 32.6 L 70.7 32.6 L 70.7 32.6 Q 70.7 36.6 68.9 45 L 68.9 45 L 68.9 45 Q 68 49.1 68 50.6 L 68 50.6 L 68 50.6 Q 68 52.1 68.9 53 L 68.9 53 L 68.9 53 Q 69.8 53.9 71.1 54 L 71.1 54 L 71.1 54 Q 70.4 56.2 68.2 57.5 L 68.2 57.5 L 68.2 57.5 Q 66 58.8 63.1 58.8 Z M 78.8 55.6 L 78.8 55.6 L 78.8 55.6 Q 77.3 53.9 76.6 51.3 L 76.6 51.3 L 76.6 51.3 Q 75.9 48.7 75.9 44.4 L 75.9 44.4 L 75.9 44.4 Q 75.9 40.1 77.4 36.2 L 77.4 36.2 L 77.4 36.2 Q 78.9 32.3 81.5 29.5 L 81.5 29.5 L 81.5 29.5 Q 87.1 23.6 96.1 23.6 L 96.1 23.6 L 96.1 23.6 Q 99.4 23.6 101.8 24.7 L 101.8 24.7 L 112.7 23.6 L 108 48.5 L 108 48.5 Q 107.8 49.3 107.8 50.7 L 107.8 50.7 L 107.8 50.7 Q 107.8 52.1 108.7 53 L 108.7 53 L 108.7 53 Q 109.5 53.9 110.8 54 L 110.8 54 L 110.8 54 Q 110.2 56.2 107.8 57.5 L 107.8 57.5 L 107.8 57.5 Q 105.5 58.8 102.9 58.8 L 102.9 58.8 L 102.9 58.8 Q 100.2 58.8 98.5 57.8 L 98.5 57.8 L 98.5 57.8 Q 96.7 56.8 96.2 55.1 L 96.2 55.1 L 96.2 55.1 Q 95.2 56.7 93 57.8 L 93 57.8 L 93 57.8 Q 90.8 58.8 87.9 58.8 L 87.9 58.8 L 87.9 58.8 Q 85 58.8 82.6 58 L 82.6 58 L 82.6 58 Q 80.3 57.2 78.8 55.6 Z M 92.3 29.6 L 92.3 29.6 L 92.3 29.6 Q 91.5 30.7 90.9 32.7 L 90.9 32.7 L 90.9 32.7 Q 90.3 34.6 89.2 39.9 L 89.2 39.9 L 89.2 39.9 Q 88.1 45.1 88.1 48.8 L 88.1 48.8 L 88.1 48.8 Q 88.1 52.5 88.7 53.6 L 88.7 53.6 L 88.7 53.6 Q 89.3 54.7 90.3 54.7 L 90.3 54.7 L 90.3 54.7 Q 92.4 54.7 93.9 52.7 L 93.9 52.7 L 93.9 52.7 Q 95.4 50.8 95.9 47.3 L 95.9 47.3 L 99.3 28.6 L 99.3 28.6 Q 98 27.4 96.4 27.4 L 96.4 27.4 L 96.4 27.4 Q 94.9 27.4 93.9 27.9 L 93.9 27.9 L 93.9 27.9 Q 93 28.4 92.3 29.6 Z M 120.5 30.7 L 120.5 30.7 L 120.5 30.7 Q 122.6 27.7 125.9 25.6 L 125.9 25.6 L 125.9 25.6 Q 129.2 23.6 133.3 23.6 L 133.3 23.6 L 133.3 23.6 Q 137.3 23.6 139.2 24.9 L 139.2 24.9 L 151.8 23.6 L 147.4 48.2 L 147.4 48.2 Q 145.2 60.7 140.4 65.6 L 140.4 65.6 L 140.4 65.6 Q 135.9 70.3 127.1 70.3 L 127.1 70.3 L 127.1 70.3 Q 120.3 70.3 116.5 68.2 L 116.5 68.2 L 116.5 68.2 Q 112.7 66.1 112.7 62.6 L 112.7 62.6 L 112.7 62.6 Q 112.7 59.9 114.6 58.4 L 114.6 58.4 L 114.6 58.4 Q 116.6 56.9 119.7 56.9 L 119.7 56.9 L 119.7 56.9 Q 122.4 56.9 124.4 58.1 L 124.4 58.1 L 124.4 58.1 Q 125.6 58.8 126.2 59.7 L 126.2 59.7 L 126.2 59.7 Q 124.7 61 124.7 63.1 L 124.7 63.1 L 124.7 63.1 Q 124.7 65.8 127.3 65.8 L 127.3 65.8 L 127.3 65.8 Q 131.6 65.8 134 55.7 L 134 55.7 L 134 55.7 Q 134.7 53 135.3 50.2 L 135.3 50.2 L 135.3 50.2 Q 132.4 53.7 125.9 53.7 L 125.9 53.7 L 125.9 53.7 Q 121.4 53.7 118.7 51.5 L 118.7 51.5 L 118.7 51.5 Q 116.1 49.4 116.1 44.2 L 116.1 44.2 L 116.1 44.2 Q 116.1 41 117.2 37.4 L 117.2 37.4 L 117.2 37.4 Q 118.3 33.8 120.5 30.7 Z M 128.8 44.4 L 128.8 44.4 L 128.8 44.4 Q 128.8 48.8 131 48.8 L 131 48.8 L 131 48.8 Q 132.6 48.8 134 47.1 L 134 47.1 L 134 47.1 Q 135.2 45.8 135.6 43.8 L 135.6 43.8 L 138.9 27.4 L 138.9 27.4 Q 138.6 27.3 138.3 27.2 L 138.3 27.2 L 138.3 27.2 Q 137.6 26.9 136.8 26.9 L 136.8 26.9 L 136.8 26.9 Q 132.9 26.9 130.6 33.3 L 130.6 33.3 L 130.6 33.3 Q 128.8 38.3 128.8 44.4 Z M 180.2 46.7 L 180.2 46.7 L 180.2 46.7 Q 181.8 47.8 181.8 50.2 L 181.8 50.2 L 181.8 50.2 Q 181.8 52.6 180.6 54.1 L 180.6 54.1 L 180.6 54.1 Q 179.3 55.6 177.4 56.7 L 177.4 56.7 L 177.4 56.7 Q 173.3 58.8 168.8 58.8 L 168.8 58.8 L 168.8 58.8 Q 164.4 58.8 161.8 57.8 L 161.8 57.8 L 161.8 57.8 Q 159.2 56.9 157.5 55.1 L 157.5 55.1 L 157.5 55.1 Q 154.1 51.7 154.1 45.5 L 154.1 45.5 L 154.1 45.5 Q 154.1 35.8 159.4 29.9 L 159.4 29.9 L 159.4 29.9 Q 165 23.6 174.8 23.6 L 174.8 23.6 L 174.8 23.6 Q 180.9 23.6 183.9 26.1 L 183.9 26.1 L 183.9 26.1 Q 186.1 28.1 186.1 31.2 L 186.1 31.2 L 186.1 31.2 Q 186.1 42.5 166.7 42.5 L 166.7 42.5 L 166.7 42.5 Q 166.4 44.1 166.4 45.5 L 166.4 45.5 L 166.4 45.5 Q 166.4 48.5 167.7 49.6 L 167.7 49.6 L 167.7 49.6 Q 169 50.7 171.5 50.7 L 171.5 50.7 L 171.5 50.7 Q 173.9 50.7 176.5 49.6 L 176.5 49.6 L 176.5 49.6 Q 179.1 48.5 180.2 46.7 Z M 167.1 39.7 L 167.1 39.7 L 167.1 39.7 Q 171.7 39.7 174.3 36.9 L 174.3 36.9 L 174.3 36.9 Q 176.9 34.2 176.9 29.9 L 176.9 29.9 L 176.9 29.9 Q 176.9 28.4 176.4 27.6 L 176.4 27.6 L 176.4 27.6 Q 175.8 26.8 174.7 26.8 L 174.7 26.8 L 174.7 26.8 Q 173.6 26.8 172.7 27.3 L 172.7 27.3 L 172.7 27.3 Q 171.8 27.7 170.8 29.1 L 170.8 29.1 L 170.8 29.1 Q 168.5 32.3 167.1 39.7 Z M 207.4 35 L 207.4 35 L 207.4 35 Q 208.3 32.7 208.3 30.6 L 208.3 30.6 L 208.3 30.6 Q 208.3 26.8 205.3 26.8 L 205.3 26.8 L 205.3 26.8 Q 203.7 26.8 202.3 28.3 L 202.3 28.3 L 202.3 28.3 Q 201 29.7 201 31.5 L 201 31.5 L 201 31.5 Q 201 32.8 202.1 33.8 L 202.1 33.8 L 202.1 33.8 Q 203.5 35.2 207.3 37.5 L 207.3 37.5 L 207.3 37.5 Q 211.1 39.8 212.5 41.7 L 212.5 41.7 L 212.5 41.7 Q 214 43.6 214 46.2 L 214 46.2 L 214 46.2 Q 214 48.8 212.7 51.2 L 212.7 51.2 L 212.7 51.2 Q 211.5 53.5 209.2 55.2 L 209.2 55.2 L 209.2 55.2 Q 204.4 58.8 196.7 58.8 L 196.7 58.8 L 196.7 58.8 Q 192.6 58.8 189.4 56.6 L 189.4 56.6 L 189.4 56.6 Q 186.2 54.5 186.2 52 L 186.2 52 L 186.2 52 Q 186.2 49.5 188 48 L 188 48 L 188 48 Q 189.8 46.6 192.5 46.6 L 192.5 46.6 L 192.5 46.6 Q 195.2 46.6 196.9 47.6 L 196.9 47.6 L 196.9 47.6 Q 196 49.7 196 51.1 L 196 51.1 L 196 51.1 Q 196 55.3 199.6 55.3 L 199.6 55.3 L 199.6 55.3 Q 201.2 55.3 202.2 54.4 L 202.2 54.4 L 202.2 54.4 Q 203.2 53.4 203.2 51.7 L 203.2 51.7 L 203.2 51.7 Q 203.2 48.5 197.7 45 L 197.7 45 L 197.7 45 Q 193.2 42.1 192.2 40.9 L 192.2 40.9 L 192.2 40.9 Q 190.5 38.9 190.5 36.3 L 190.5 36.3 L 190.5 36.3 Q 190.5 33.8 191.7 31.3 L 191.7 31.3 L 191.7 31.3 Q 192.9 28.9 195.1 27.2 L 195.1 27.2 L 195.1 27.2 Q 199.8 23.6 207.9 23.6 L 207.9 23.6 L 207.9 23.6 Q 212.1 23.6 214.6 25.2 L 214.6 25.2 L 214.6 25.2 Q 217 26.9 217 29.7 L 217 29.7 L 217 29.7 Q 217 32.5 215.3 34.1 L 215.3 34.1 L 215.3 34.1 Q 213.6 35.7 210.6 35.7 L 210.6 35.7 L 210.6 35.7 Q 208.5 35.7 207.4 35 Z M 258.5 36.9 L 271.4 35.7 L 271.4 35.7 Q 266.8 45.8 266.8 57.6 L 266.8 57.6 L 266.8 57.6 Q 265.1 58.8 262.6 58.8 L 262.6 58.8 L 262.6 58.8 Q 260 58.8 258.4 57.6 L 258.4 57.6 L 258.4 57.6 Q 256.8 56.4 256.5 55.2 L 256.5 55.2 L 256.5 55.2 Q 254.9 56.9 252.3 57.8 L 252.3 57.8 L 252.3 57.8 Q 249.7 58.8 247 58.8 L 247 58.8 L 247 58.8 Q 244.2 58.8 241.8 57.9 L 241.8 57.9 L 241.8 57.9 Q 239.4 57 237.6 55 L 237.6 55 L 237.6 55 Q 233.5 50.6 233.5 42.4 L 233.5 42.4 L 233.5 42.4 Q 233.5 29.6 240.3 21.9 L 240.3 21.9 L 240.3 21.9 Q 247.4 14 259.9 14 L 259.9 14 L 259.9 14 Q 268.5 14 271.6 18.5 L 271.6 18.5 L 271.6 18.5 Q 272.5 19.9 272.5 21.6 L 272.5 21.6 L 272.5 21.6 Q 272.5 23.3 271.8 24.7 L 271.8 24.7 L 271.8 24.7 Q 271.1 26.1 269.9 27.3 L 269.9 27.3 L 269.9 27.3 Q 267.1 29.8 263.8 29.8 L 263.8 29.8 L 263.8 29.8 Q 262.4 29.8 261.1 29.4 L 261.1 29.4 L 261.1 29.4 Q 261.4 27.5 261.4 25.2 L 261.4 25.2 L 261.4 25.2 Q 261.4 23 261.2 22 L 261.2 22 L 261.2 22 Q 261.1 21 260.7 20.1 L 260.7 20.1 L 260.7 20.1 Q 259.9 18.4 258 18.4 L 258 18.4 L 258 18.4 Q 256.2 18.4 254.2 20.3 L 254.2 20.3 L 254.2 20.3 Q 252.2 22.3 250.6 25.5 L 250.6 25.5 L 250.6 25.5 Q 247.1 32.7 247.1 41.3 L 247.1 41.3 L 247.1 41.3 Q 247.1 45.3 248.6 48.1 L 248.6 48.1 L 248.6 48.1 Q 250.3 51.2 253.2 51.2 L 253.2 51.2 L 253.2 51.2 Q 254.2 51.2 255.1 50.6 L 255.1 50.6 L 255.1 50.6 Q 256.1 50.1 256.5 49.8 L 256.5 49.8 L 258.5 36.9 Z M 277.4 55.6 L 277.4 55.6 L 277.4 55.6 Q 275.9 53.9 275.2 51.3 L 275.2 51.3 L 275.2 51.3 Q 274.5 48.7 274.5 44.4 L 274.5 44.4 L 274.5 44.4 Q 274.5 40.1 276 36.2 L 276 36.2 L 276 36.2 Q 277.5 32.3 280.1 29.5 L 280.1 29.5 L 280.1 29.5 Q 285.6 23.6 294.7 23.6 L 294.7 23.6 L 294.7 23.6 Q 298 23.6 300.4 24.7 L 300.4 24.7 L 311.3 23.6 L 306.6 48.5 L 306.6 48.5 Q 306.4 49.3 306.4 50.7 L 306.4 50.7 L 306.4 50.7 Q 306.4 52.1 307.2 53 L 307.2 53 L 307.2 53 Q 308.1 53.9 309.4 54 L 309.4 54 L 309.4 54 Q 308.7 56.2 306.4 57.5 L 306.4 57.5 L 306.4 57.5 Q 304.1 58.8 301.5 58.8 L 301.5 58.8 L 301.5 58.8 Q 298.8 58.8 297.1 57.8 L 297.1 57.8 L 297.1 57.8 Q 295.3 56.8 294.8 55.1 L 294.8 55.1 L 294.8 55.1 Q 293.8 56.7 291.6 57.8 L 291.6 57.8 L 291.6 57.8 Q 289.4 58.8 286.5 58.8 L 286.5 58.8 L 286.5 58.8 Q 283.6 58.8 281.2 58 L 281.2 58 L 281.2 58 Q 278.9 57.2 277.4 55.6 Z M 290.9 29.6 L 290.9 29.6 L 290.9 29.6 Q 290.1 30.7 289.5 32.7 L 289.5 32.7 L 289.5 32.7 Q 288.8 34.6 287.8 39.9 L 287.8 39.9 L 287.8 39.9 Q 286.7 45.1 286.7 48.8 L 286.7 48.8 L 286.7 48.8 Q 286.7 52.5 287.3 53.6 L 287.3 53.6 L 287.3 53.6 Q 287.9 54.7 288.9 54.7 L 288.9 54.7 L 288.9 54.7 Q 291 54.7 292.5 52.7 L 292.5 52.7 L 292.5 52.7 Q 294 50.8 294.5 47.3 L 294.5 47.3 L 297.9 28.6 L 297.9 28.6 Q 296.6 27.4 295 27.4 L 295 27.4 L 295 27.4 Q 293.5 27.4 292.5 27.9 L 292.5 27.9 L 292.5 27.9 Q 291.6 28.4 290.9 29.6 Z M 330.1 54 L 330.1 54 L 330.1 54 Q 328.1 58.8 321.7 58.8 L 321.7 58.8 L 321.7 58.8 Q 318.5 58.8 316.5 56.5 L 316.5 56.5 L 316.5 56.5 Q 314.8 54.7 314.8 52.6 L 314.8 52.6 L 314.8 52.6 Q 314.8 47.8 317.1 37.3 L 317.1 37.3 L 321.7 12.7 L 334.7 11.4 L 328.5 43.8 L 328.5 43.8 Q 327.4 48.5 327.4 50.2 L 327.4 50.2 L 327.4 50.2 Q 327.4 53.8 330.1 54 Z M 350.8 54 L 350.8 54 L 350.8 54 Q 348.8 58.8 342.5 58.8 L 342.5 58.8 L 342.5 58.8 Q 339.3 58.8 337.2 56.5 L 337.2 56.5 L 337.2 56.5 Q 335.6 54.7 335.6 52.6 L 335.6 52.6 L 335.6 52.6 Q 335.6 47.8 337.8 37.3 L 337.8 37.3 L 342.5 12.7 L 355.5 11.4 L 349.3 43.8 L 349.3 43.8 Q 348.2 48.5 348.2 50.2 L 348.2 50.2 L 348.2 50.2 Q 348.2 53.8 350.8 54 Z M 382.2 46.7 L 382.2 46.7 L 382.2 46.7 Q 383.8 47.8 383.8 50.2 L 383.8 50.2 L 383.8 50.2 Q 383.8 52.6 382.5 54.1 L 382.5 54.1 L 382.5 54.1 Q 381.3 55.6 379.3 56.7 L 379.3 56.7 L 379.3 56.7 Q 375.2 58.8 370.8 58.8 L 370.8 58.8 L 370.8 58.8 Q 366.4 58.8 363.8 57.8 L 363.8 57.8 L 363.8 57.8 Q 361.2 56.9 359.5 55.1 L 359.5 55.1 L 359.5 55.1 Q 356.1 51.7 356.1 45.5 L 356.1 45.5 L 356.1 45.5 Q 356.1 35.8 361.4 29.9 L 361.4 29.9 L 361.4 29.9 Q 367 23.6 376.8 23.6 L 376.8 23.6 L 376.8 23.6 Q 382.9 23.6 385.9 26.1 L 385.9 26.1 L 385.9 26.1 Q 388.1 28.1 388.1 31.2 L 388.1 31.2 L 388.1 31.2 Q 388.1 42.5 368.7 42.5 L 368.7 42.5 L 368.7 42.5 Q 368.4 44.1 368.4 45.5 L 368.4 45.5 L 368.4 45.5 Q 368.4 48.5 369.7 49.6 L 369.7 49.6 L 369.7 49.6 Q 371 50.7 373.5 50.7 L 373.5 50.7 L 373.5 50.7 Q 375.9 50.7 378.5 49.6 L 378.5 49.6 L 378.5 49.6 Q 381.1 48.5 382.2 46.7 Z M 369.1 39.7 L 369.1 39.7 L 369.1 39.7 Q 373.6 39.7 376.3 36.9 L 376.3 36.9 L 376.3 36.9 Q 378.9 34.2 378.9 29.9 L 378.9 29.9 L 378.9 29.9 Q 378.9 28.4 378.3 27.6 L 378.3 27.6 L 378.3 27.6 Q 377.8 26.8 376.7 26.8 L 376.7 26.8 L 376.7 26.8 Q 375.6 26.8 374.7 27.3 L 374.7 27.3 L 374.7 27.3 Q 373.8 27.7 372.8 29.1 L 372.8 29.1 L 372.8 29.1 Q 370.4 32.3 369.1 39.7 Z M 410.3 39.5 L 410.3 39.5 L 410.3 39.5 Q 412.6 35.4 412.6 31.3 L 412.6 31.3 L 412.6 31.3 Q 412.6 28.5 410.6 28.5 L 410.6 28.5 L 410.6 28.5 Q 409.1 28.5 407.5 31.1 L 407.5 31.1 L 407.5 31.1 Q 405.8 33.8 405.3 37.1 L 405.3 37.1 L 402 57.5 L 388.7 58.8 L 395.3 24.9 L 405.8 23.6 L 404.7 30 L 404.7 30 Q 407.8 23.6 414.9 23.6 L 414.9 23.6 L 414.9 23.6 Q 418.6 23.6 420.6 25.5 L 420.6 25.5 L 420.6 25.5 Q 422.6 27.4 422.6 31.4 L 422.6 31.4 L 422.6 31.4 Q 422.6 35.3 420 37.8 L 420 37.8 L 420 37.8 Q 417.4 40.3 413 40.3 L 413 40.3 L 413 40.3 Q 411.1 40.3 410.3 39.5 Z M 444 50.3 L 444 50.3 L 444 50.3 Q 440.7 53.7 434.6 53.7 L 434.6 53.7 L 434.6 53.7 Q 427 53.7 425.4 48.2 L 425.4 48.2 L 425.4 48.2 Q 424.8 46.5 424.8 44.6 L 424.8 44.6 L 424.8 44.6 Q 424.8 42.8 425.2 40.9 L 425.2 40.9 L 428.2 24.9 L 441.2 23.6 L 437.7 42.2 L 437.7 42.2 Q 437.6 43 437.4 43.9 L 437.4 43.9 L 437.4 43.9 Q 437.2 44.8 437.2 45.8 L 437.2 45.8 L 437.2 45.8 Q 437.2 46.7 437.5 47.3 L 437.5 47.3 L 437.5 47.3 Q 437.8 47.9 438.3 48.3 L 438.3 48.3 L 438.3 48.3 Q 439.1 48.8 440.4 48.8 L 440.4 48.8 L 440.4 48.8 Q 441.8 48.8 443 47.1 L 443 47.1 L 443 47.1 Q 444.2 45.5 444.7 42.6 L 444.7 42.6 L 448.3 24.9 L 460.9 23.6 L 456.1 48.7 L 456.1 48.7 Q 453.7 61 448.8 65.9 L 448.8 65.9 L 448.8 65.9 Q 446.3 68.4 443.1 69.4 L 443.1 69.4 L 443.1 69.4 Q 439.9 70.4 435.7 70.4 L 435.7 70.4 L 435.7 70.4 Q 429 70.4 425.2 68.2 L 425.2 68.2 L 425.2 68.2 Q 421.3 66.1 421.3 62.6 L 421.3 62.6 L 421.3 62.6 Q 421.3 60 423.3 58.5 L 423.3 58.5 L 423.3 58.5 Q 425.3 57 428.4 57 L 428.4 57 L 428.4 57 Q 431.1 57 433.1 58.1 L 433.1 58.1 L 433.1 58.1 Q 434.3 58.8 434.9 59.7 L 434.9 59.7 L 434.9 59.7 Q 433.4 61 433.4 63.1 L 433.4 63.1 L 433.4 63.1 Q 433.4 65.9 436 65.9 L 436 65.9 L 436 65.9 Q 440.2 65.9 442.6 56.2 L 442.6 56.2 L 442.6 56.2 Q 443.3 53.3 444 50.3 Z" fill="url(#editing-gradient-gradient)"></path></g></g><style>text {
  font-size: 64px;
  font-family: Arial Black;
  dominant-baseline: central;
  text-anchor: middle;
}</style></svg>